<svg id="Capa_1" enable-background="new 0 0 512 512" height="512" viewBox="0 0 512 512" width="512" xmlns="http://www.w3.org/2000/svg" xmlns:xlink="http://www.w3.org/1999/xlink"><linearGradient id="SVGID_1_" gradientUnits="userSpaceOnUse" x1="256" x2="256" y1="512" y2="0"><stop offset="0" stop-color="#fd5900"/><stop offset="1" stop-color="#ffde00"/></linearGradient><g><g><g><path d="m195 150c-8.284 0-15 6.716-15 15s6.716 15 15 15 15-6.716 15-15-6.716-15-15-15zm90 0h-16.509c-1.949-9.561-5.731-18.46-10.948-26.329l11.704-11.704c5.858-5.858 5.858-15.355 0-21.213s-15.356-5.858-21.213 0l-11.704 11.704c-7.869-5.217-16.768-9-26.329-10.948v-16.51c0-8.284-6.716-15-15-15s-15 6.716-15 15v16.509c-9.561 1.949-18.46 5.731-26.329 10.948l-11.704-11.704c-5.857-5.858-15.355-5.858-21.213 0s-5.858 15.355 0 21.213l11.704 11.704c-5.218 7.869-9 16.768-10.948 26.329h-16.511c-8.284 0-15 6.716-15 15s6.716 15 15 15h16.509c1.948 9.561 5.731 18.46 10.948 26.329l-11.704 11.703c-5.858 5.858-5.858 15.355 0 21.213 5.857 5.857 15.354 5.859 21.213 0l11.704-11.704c7.869 5.217 16.768 9 26.329 10.948v16.512c0 8.284 6.716 15 15 15s15-6.716 15-15v-16.509c9.561-1.949 18.46-5.731 26.329-10.948l11.704 11.704c5.857 5.858 15.355 5.858 21.213 0s5.858-15.355 0-21.213l-11.704-11.703c5.218-7.869 9-16.768 10.948-26.329h16.511c8.284 0 15-6.716 15-15s-6.716-15.002-15-15.002zm-90 60c-24.813 0-45-20.187-45-45s20.187-45 45-45 45 20.187 45 45-20.187 45-45 45zm272 240c-8.284 0-15 6.716-15 15s6.716 15 15 15 15-6.716 15-15-6.716-15-15-15zm-19.24-127.114c2.733-4.422 2.981-9.944.656-14.594l-58.449-116.898c-1.934-105.863-88.652-191.394-194.967-191.394-107.523 0-195 87.477-195 195 0 68.607 35.618 129.291 90 164.141v137.859c0 8.284 6.716 15 15 15h180c8.284 0 15-6.716 15-15v-47h75c8.284 0 15-6.716 15-15v-105h45c5.198 0 10.026-2.692 12.76-7.114zm-72.76-22.886c-8.284 0-15 6.716-15 15v105h-75c-8.284 0-15 6.716-15 15v47h-150v-131.278c0-5.351-2.851-10.297-7.481-12.979-50.9-29.485-82.519-84.181-82.519-142.743 0-90.981 74.019-165 165-165s165 74.019 165 165c0 2.329.542 4.625 1.584 6.708l49.145 98.292zm122 90c-8.284 0-15 6.716-15 15s6.716 15 15 15 15-6.716 15-15-6.716-15-15-15zm-60 0c-8.284 0-15 6.716-15 15s6.716 15 15 15 15-6.716 15-15-6.716-15-15-15z" fill="url(#SVGID_1_)"/></g></g></g></svg>